{"title":"David Letterman - CBS This Morning - 2012.12.20 - XviD","uid":7943353,"size":205702522,"categoryP":"video","categoryS":"tv_shows","magnet":"?xt=urn:btih:3aba0fb0be62ddb68c5ff47016c67ebdd985ba95&amp;dn=David+Letterman+-+CBS+This+Morning+-+2012.12.20+-+XviD&amp;tr=udp%3A%2F%2Ftracker.openbittorrent.com%3A80&amp;tr=udp%3A%2F%2Fopen.demonii.com%3A1337&amp;tr=udp%3A%2F%2Ftracker.coppersurfer.tk%3A6969&amp;tr=udp%3A%2F%2Fexodus.desync.com%3A6969","seeders":0,"leechers":1,"uploader":"tunamoon","files":1,"time":1356055141,"description":"\nCharlie Rose interviews David Letterman on CBS This Morning\n\nDuration                         : 16mn 48s\n\nVideo\nID                               : 0\nFormat                           : MPEG-4 Visual\nFormat profile                   : Advanced Simple@L5\nFormat settings, BVOP            : 1\nFormat settings, QPel            : No\nFormat settings, GMC             : No warppoints\nFormat settings, Matrix          : Default (H.263)\nCodec ID                         : XVID\nCodec ID/Hint                    : XviD\nDuration                         : 16mn 48s\nBit rate                         : 1 460 Kbps\nWidth                            : 624 pixels\nHeight                           : 352 pixels\nDisplay aspect ratio             : 16:9\nFrame rate                       : 29.970 fps\nColor space                      : YUV\nChroma subsampling               : 4:2:0\nBit depth                        : 8 bits\nScan type                        : Progressive\nCompression mode                 : Lossy\nBits/(Pixel*Frame)               : 0.222\nStream size                      : 176 MiB (89%)\nWriting library                  : XviD 1.2.1 (UTC 2008-12-04)\n\nAudio\nID                               : 1\nFormat                           : MPEG Audio\nFormat version                   : Version 1\nFormat profile                   : Layer 3\nMode                             : Joint stereo\nMode extension                   : MS Stereo\nCodec ID                         : 55\nCodec ID/Hint                    : MP3\nDuration                         : 16mn 48s\nBit rate mode                    : Constant\nBit rate                         : 160 Kbps\nChannel(s)                       : 2 channels\nSampling rate                    : 48.0 KHz\nCompression mode                 : Lossy\nStream size                      : 19.2 MiB (10%)\nAlignment                        : Split accross interleaves\nInterleave, duration             : 33 ms (1.00 video frame)\nInterleave, preload duration     : 500 ms\nWriting library                  : LAME3.96.1\n","torrent":{"xt":"urn:btih:3aba0fb0be62ddb68c5ff47016c67ebdd985ba95","amp;dn":"David+Letterman+-+CBS+This+Morning+-+2012.12.20+-+XviD","amp;tr":["udp%3A%2F%2Ftracker.openbittorrent.com%3A80","udp%3A%2F%2Fopen.demonii.com%3A1337","udp%3A%2F%2Ftracker.coppersurfer.tk%3A6969","udp%3A%2F%2Fexodus.desync.com%3A6969"],"infoHash":"3aba0fb0be62ddb68c5ff47016c67ebdd985ba95","infoHashBuffer":{"type":"Buffer","data":[58,186,15,176,190,98,221,182,140,95,244,112,22,198,126,189,217,133,186,149]},"announce":[],"urlList":[]}}